<svg width="15" height="11" viewBox="0 0 15 11" fill="none" xmlns="http://www.w3.org/2000/svg">
<path d="M1.8125 0C1.08789 0 0.5 0.587891 0.5 1.3125C0.5 1.72539 0.694141 2.11367 1.025 2.3625L6.975 6.825C7.28672 7.05742 7.71328 7.05742 8.025 6.825L13.975 2.3625C14.3059 2.11367 14.5 1.72539 14.5 1.3125C14.5 0.587891 13.9121 0 13.1875 0H1.8125ZM0.5 3.0625V8.75C0.5 9.71523 1.28477 10.5 2.25 10.5H12.75C13.7152 10.5 14.5 9.71523 14.5 8.75V3.0625L8.55 7.525C7.92656 7.99258 7.07344 7.99258 6.45 7.525L0.5 3.0625Z" fill="url(#paint0_linear_264_1655)"/>
<defs>
<linearGradient id="paint0_linear_264_1655" x1="0.5" y1="5.25" x2="14.5" y2="5.25" gradientUnits="userSpaceOnUse">
<stop stop-color="#9B78E4"/>
<stop offset="1" stop-color="#5200FF"/>
</linearGradient>
</defs>
</svg>
