<svg width="15" height="14" viewBox="0 0 15 14" fill="none" xmlns="http://www.w3.org/2000/svg">
<path d="M5.00879 0.673243C4.79825 0.164672 4.24319 -0.106019 3.71275 0.0388961L1.30661 0.695117C0.830845 0.826361 0.5 1.25837 0.5 1.75054C0.5 8.51509 5.98491 14 12.7495 14C13.2416 14 13.6736 13.6692 13.8049 13.1934L14.4611 10.7873C14.606 10.2568 14.3353 9.70175 13.8268 9.49121L11.2019 8.39751C10.7562 8.21158 10.2394 8.34009 9.93591 8.71469L8.83127 10.0627C6.90636 9.15217 5.34783 7.59364 4.43733 5.66873L5.78531 4.56682C6.15991 4.26059 6.28842 3.74655 6.10249 3.30086L5.00879 0.675977V0.673243Z" fill="url(#paint0_linear_264_1651)"/>
<defs>
<linearGradient id="paint0_linear_264_1651" x1="0.5" y1="7" x2="14.5" y2="7" gradientUnits="userSpaceOnUse">
<stop stop-color="#9B78E4"/>
<stop offset="1" stop-color="#5200FF"/>
</linearGradient>
</defs>
</svg>
